<svg xmlns="http://www.w3.org/2000/svg" viewBox="0 0 24 24">
  <path fill="#003087" d="M7.076 21.337H2.47a.641.641 0 0 1-.633-.74L4.944.901C5.026.382 5.474 0 5.998 0h7.46c2.57 0 4.578.543 5.69 1.81 1.01 1.15 1.304 2.42 1.012 4.287-.023.143-.047.288-.077.437-.983 5.05-4.349 6.797-8.647 6.797h-2.19c-.524 0-.968.382-1.05.9l-1.12 7.106z"/>
  <path fill="#009cde" d="M21.222 6.771a6.57 6.57 0 0 0-.879-.197 11.15 11.15 0 0 0-1.766-.128H14.6a.926.926 0 0 0-.922.789L12.54 15.35l-.036.228a1.353 1.353 0 0 1 1.338-1.15h2.786c5.474 0 9.758-2.224 11.01-8.659.034-.186.064-.367.09-.545a6.73 6.73 0 0 0-2.506-.453z"/>
</svg>
