<svg xmlns="http://www.w3.org/2000/svg" viewBox="0 0 32 32" width="32" height="32">
  <circle cx="16" cy="16" r="16" fill="#26A17B"/>
  <path fill="#fff" d="M17.92 14.4v-1.9h4.35V9.6H9.74v2.9h4.35v1.9c-3.54.16-6.2.86-6.2 1.7s2.66 1.54 6.2 1.7v6.1h3.83v-6.1c3.53-.16 6.18-.86 6.18-1.7s-2.65-1.54-6.18-1.7zm0 2.88v-.01c-.09.01-.55.04-1.58.04-.82 0-1.4-.02-1.6-.04v.01c-3.13-.14-5.47-.69-5.47-1.34s2.34-1.2 5.47-1.34v2.12c.2.01.79.05 1.61.05.99 0 1.48-.05 1.57-.05v-2.12c3.12.14 5.45.69 5.45 1.34s-2.33 1.2-5.45 1.34z"/>
</svg>
